# xmcd
#
# Track frame offsets: 
#        150
#        27879
#        64519
#        101802
#        131891
#        161445
#        188404
#        207262
#        246179
#        268361
#        308137
#        323542
#
# Disc length: 4796 seconds
#
# Revision: 0
# Processed by: cddbd v1.5.2PL0 Copyright (c) Steve Scherf et al.
# Submitted via: ExactAudioCopy v1.3
#
DISCID=a412ba0c
DTITLE=Various Artist - Akella Presents - vol.209 - Blues-Rock Live! 
DTITLE=CD1
DYEAR=2019
DGENRE=Blues
TTITLE0=Andreas Diehlmann Band - Going Down
TTITLE1=Blindside Blues Band - Crying Shame
TTITLE2=Julian Sas - Helping Hand
TTITLE3=Electric Mary - Let Me Out
TTITLE4=Andy Aledort and the Groove Kings - Wrapped Up in Love Again
TTITLE5=Ben Granfelt - Confession Time
TTITLE6=Dr. Wu' and Friends - When Your Lips Start Moving
TTITLE7=Matt O'Ree Band - Good Enough
TTITLE8=Sugar Queen And The Straight Blues Band - I Can't Wait
TTITLE9=Alvaro Assmar - The Sky Is Crying
TTITLE10=Andreas Diehlmann Band - Rita
TTITLE11=DeWolff - Medicine
EXTD=
EXTT0=
EXTT1=
EXTT2=
EXTT3=
EXTT4=
EXTT5=
EXTT6=
EXTT7=
EXTT8=
EXTT9=
EXTT10=
EXTT11=
PLAYORDER=
